<svg width="24" height="24" viewBox="0 0 24 24" fill="none" xmlns="http://www.w3.org/2000/svg">
<path d="M12 2C6.47715 2 2 6.47715 2 12C2 17.5228 6.47715 22 12 22C17.5228 22 22 17.5228 22 12C22 6.47715 17.5228 2 12 2Z" stroke="#4CAF50" stroke-width="2" stroke-linecap="round" stroke-linejoin="round"/>
<path d="M16 11V8H8V11C8 11.5523 8.44772 12 9 12H15C15.5523 12 16 11.5523 16 11Z" fill="#4CAF50"/>
<path d="M8 8V11C8 11.5523 8.44772 12 9 12H15C15.5523 12 16 11.5523 16 11V8" stroke="#FFFFFF" stroke-width="2" stroke-linecap="round" stroke-linejoin="round"/>
<path d="M9 12V14C9 14.5523 9.44772 15 10 15H14C14.5523 15 15 14.5523 15 14V12" stroke="#FFFFFF" stroke-width="2" stroke-linecap="round" stroke-linejoin="round"/>
<path d="M12 15V18" stroke="#FFFFFF" stroke-width="2" stroke-linecap="round" stroke-linejoin="round"/>
</svg> 